<svg id="visual" viewBox="0 0 900 450" width="900" height="450" xmlns="http://www.w3.org/2000/svg" xmlns:xlink="http://www.w3.org/1999/xlink" version="1.1"><rect x="0" y="0" width="900" height="450" fill="#225e51"></rect><defs><linearGradient id="grad1_0" x1="50%" y1="0%" x2="100%" y2="100%"><stop offset="10%" stop-color="#fedd78" stop-opacity="1"></stop><stop offset="90%" stop-color="#fedd78" stop-opacity="1"></stop></linearGradient></defs><defs><linearGradient id="grad1_1" x1="50%" y1="0%" x2="100%" y2="100%"><stop offset="10%" stop-color="#fedd78" stop-opacity="1"></stop><stop offset="90%" stop-color="#78a264" stop-opacity="1"></stop></linearGradient></defs><defs><linearGradient id="grad1_2" x1="50%" y1="0%" x2="100%" y2="100%"><stop offset="10%" stop-color="#225e51" stop-opacity="1"></stop><stop offset="90%" stop-color="#78a264" stop-opacity="1"></stop></linearGradient></defs><defs><linearGradient id="grad2_0" x1="0%" y1="0%" x2="50%" y2="100%"><stop offset="10%" stop-color="#fedd78" stop-opacity="1"></stop><stop offset="90%" stop-color="#fedd78" stop-opacity="1"></stop></linearGradient></defs><defs><linearGradient id="grad2_1" x1="0%" y1="0%" x2="50%" y2="100%"><stop offset="10%" stop-color="#78a264" stop-opacity="1"></stop><stop offset="90%" stop-color="#fedd78" stop-opacity="1"></stop></linearGradient></defs><defs><linearGradient id="grad2_2" x1="0%" y1="0%" x2="50%" y2="100%"><stop offset="10%" stop-color="#78a264" stop-opacity="1"></stop><stop offset="90%" stop-color="#225e51" stop-opacity="1"></stop></linearGradient></defs><g transform="translate(900, 0)"><path d="M0 292.5C-39.7 289.9 -79.4 287.3 -111.9 270.2C-144.4 253.2 -169.7 221.7 -192.3 192.3C-215 163 -235 135.8 -251.3 104.1C-267.6 72.4 -280 36.2 -292.5 0L0 0Z" fill="#46815e"></path><path d="M0 195C-26.5 193.3 -53 191.5 -74.6 180.2C-96.3 168.8 -113.1 147.8 -128.2 128.2C-143.3 108.7 -156.7 90.5 -167.5 69.4C-178.4 48.3 -186.7 24.1 -195 0L0 0Z" fill="#b6c26a"></path><path d="M0 97.5C-13.2 96.6 -26.5 95.8 -37.3 90.1C-48.1 84.4 -56.6 73.9 -64.1 64.1C-71.7 54.3 -78.3 45.3 -83.8 34.7C-89.2 24.1 -93.3 12.1 -97.5 0L0 0Z" fill="#fedd78"></path></g><g transform="translate(0, 450)"><path d="M0 -292.5C28.3 -261.4 56.6 -230.3 89.9 -217.1C123.2 -203.9 161.6 -208.6 194.5 -194.5C227.3 -180.3 254.8 -147.5 270.2 -111.9C285.7 -76.4 289.1 -38.2 292.5 0L0 0Z" fill="#46815e"></path><path d="M0 -195C18.9 -174.3 37.7 -153.5 60 -144.7C82.2 -135.9 107.7 -139 129.6 -129.6C151.6 -120.2 169.9 -98.3 180.2 -74.6C190.4 -50.9 192.7 -25.5 195 0L0 0Z" fill="#b6c26a"></path><path d="M0 -97.5C9.4 -87.1 18.9 -76.8 30 -72.4C41.1 -68 53.9 -69.5 64.8 -64.8C75.8 -60.1 84.9 -49.2 90.1 -37.3C95.2 -25.5 96.4 -12.7 97.5 0L0 0Z" fill="#fedd78"></path></g></svg>